<svg width="64" height="64" viewBox="0 0 80 80" fill="none" xmlns="http://www.w3.org/2000/svg">
  <circle cx="40" cy="40" r="38" fill="url(#bg)" opacity="0.15"/>
  <circle cx="40" cy="40" r="36" stroke="url(#main)" stroke-width="2.5" opacity="0.7"/>
  <rect x="27" y="32" width="26" height="16" rx="1.5" fill="url(#stage)" opacity="0.4"/>
  <rect x="29" y="34" width="22" height="12" rx="1" fill="url(#stageC)" opacity="0.5"/>
  <line x1="40" y1="34" x2="40" y2="46" stroke="url(#main)" stroke-width="0.5" opacity="0.5"/>
  <g opacity="0.95">
    <circle cx="38" cy="12" r="2.5" fill="url(#seat)"/><circle cx="44" cy="12" r="2.5" fill="url(#seat)"/>
    <circle cx="35" cy="16" r="2" fill="url(#seat)" opacity="0.85"/><circle cx="41" cy="16" r="2" fill="url(#seat)" opacity="0.85"/>
    <circle cx="47" cy="16" r="2" fill="url(#seat)" opacity="0.85"/>
    <circle cx="68" cy="38" r="2.5" fill="url(#seat)"/><circle cx="68" cy="44" r="2.5" fill="url(#seat)"/>
    <circle cx="64" cy="35" r="2" fill="url(#seat)" opacity="0.85"/><circle cx="64" cy="41" r="2" fill="url(#seat)" opacity="0.85"/>
    <circle cx="64" cy="47" r="2" fill="url(#seat)" opacity="0.85"/>
    <circle cx="44" cy="68" r="2.5" fill="url(#seat)"/><circle cx="38" cy="68" r="2.5" fill="url(#seat)"/>
    <circle cx="47" cy="64" r="2" fill="url(#seat)" opacity="0.85"/><circle cx="41" cy="64" r="2" fill="url(#seat)" opacity="0.85"/>
    <circle cx="35" cy="64" r="2" fill="url(#seat)" opacity="0.85"/>
    <circle cx="12" cy="44" r="2.5" fill="url(#seat)"/><circle cx="12" cy="38" r="2.5" fill="url(#seat)"/>
    <circle cx="16" cy="47" r="2" fill="url(#seat)" opacity="0.85"/><circle cx="16" cy="41" r="2" fill="url(#seat)" opacity="0.85"/>
    <circle cx="16" cy="35" r="2" fill="url(#seat)" opacity="0.85"/>
  </g>
  <defs>
    <radialGradient id="bg"><stop offset="0%" stop-color="#c084fc"/><stop offset="100%" stop-color="#a78bfa"/></radialGradient>
    <linearGradient id="main"><stop offset="0%" stop-color="#d8b4fe"/><stop offset="50%" stop-color="#f0abfc"/><stop offset="100%" stop-color="#c084fc"/></linearGradient>
    <linearGradient id="seat"><stop offset="0%" stop-color="#e9d5ff"/><stop offset="50%" stop-color="#d8b4fe"/><stop offset="100%" stop-color="#c084fc"/></linearGradient>
    <linearGradient id="stage"><stop offset="0%" stop-color="#a78bfa"/><stop offset="100%" stop-color="#7c3aed"/></linearGradient>
    <linearGradient id="stageC"><stop offset="0%" stop-color="#c084fc"/><stop offset="100%" stop-color="#a78bfa"/></linearGradient>
  </defs>
</svg>
